<?xml version="1.0" encoding="utf-8"?>
<!-- Generator: Adobe Illustrator 22.0.0, SVG Export Plug-In . SVG Version: 6.00 Build 0)  -->
<svg version="1.1" id="Layer_1" xmlns="http://www.w3.org/2000/svg" xmlns:xlink="http://www.w3.org/1999/xlink" x="0px" y="0px"
	 viewBox="0 0 161.7 65.4" style="enable-background:new 0 0 161.7 65.4;" xml:space="preserve">
<style type="text/css">
	.st0{fill:#D1D2D3;}
	.st1{fill:none;}
	.st2{font-family:MyriadPro-Regular, Myriad Pro;}
	.st3{font-size:36px;}
</style>
<title>Asset 1asset</title>
<g id="Layer_2">
	<g id="Layer_1-2">
		<path class="st0" d="M0,65.3c0,0,7.4-3.8,8.6-14.4v-5.8c0-0.1,0-0.2,0-0.3V25.2c0-7.8,6-14.2,13.4-14.2h126.2
			c7.4,0,13.4,6.4,13.4,14.2v26.1c0,7.8-6,14.2-13.4,14.2H22c-3.3-0.1-6.3-1.2-8.4-3.1C7.8,64.8,0,65.3,0,65.3z"/>
		<rect x="22" y="18" class="st1" width="127" height="41"/>
		<text transform="matrix(1 0 0 1 17 45.6896)" class="st2 st3">¡Sabrosa!</text>
		<rect x="196" y="102" class="st1" width="7" height="2"/>
	</g>
</g>
</svg>
