<?xml version="1.0" encoding="utf-8"?>
<!-- Generator: Adobe Illustrator 22.0.0, SVG Export Plug-In . SVG Version: 6.00 Build 0)  -->
<svg version="1.1" id="Layer_1" xmlns="http://www.w3.org/2000/svg" xmlns:xlink="http://www.w3.org/1999/xlink" x="0px" y="0px"
	 viewBox="0 0 512 512" style="enable-background:new 0 0 512 512;" xml:space="preserve">
<style type="text/css">
	.st0{fill:#55AAC2;stroke:#211915;stroke-width:19;stroke-miterlimit:10;}
	.st1{fill:#C13C8B;}
	.st2{fill:#211915;}
</style>
<path class="st0" d="M254.4,14C163.2,14,97,89.3,97,171.4c0,49.7,17.4,76.2,40.6,124.2c46.4,96.1,116.7,198.8,116.7,198.8
	s70.4-102.7,116.8-198.8c23.2-48,40.6-74.5,40.6-124.2C411.7,89.3,345.5,14,254.4,14"/>
<path class="st1" d="M328.9,171.4c0-41.4-33.1-74.5-74.5-74.5s-74.5,33.1-74.5,74.5s33.1,74.5,74.5,74.5S328.9,212.8,328.9,171.4"/>
<path class="st2" d="M213,179.7c-5,0-8.3-3.3-8.3-8.3c0-27.3,22.3-49.7,49.7-49.7c5,0,8.3,3.3,8.3,8.3s-3.3,8.3-8.3,8.3
	c-18.2,0-33.1,14.9-33.1,33.1C221.2,176.3,217.9,179.7,213,179.7z"/>
</svg>
